<?xml version="1.0" encoding="UTF-8"?>
<svg width="15mm" height="15mm" version="1.1" viewBox="0 0 15 15" xmlns="http://www.w3.org/2000/svg">
 <path d="m0.068154 1.2808c0.18457-0.58102 0.52913-0.96553 1.0441-1.1652 0.28475-0.11038 0.56013-0.11533 6.4252-0.11533h6.1277l0.3447 0.17013c0.39053 0.19274 0.67552 0.48817 0.86229 0.89385 0.12722 0.27634 0.12775 0.30299 0.12775 6.436v6.1585l-0.14338 0.31872c-0.17646 0.39225-0.55488 0.75251-0.95224 0.90654-0.28771 0.11152-0.54559 0.11621-6.3971 0.11621-5.8353 0-6.1101-5e-3 -6.3948-0.11533-0.38312-0.14852-0.73145-0.4673-0.93578-0.85641l-0.16213-0.30875-0.01184-6.0976c-0.0093-4.8055 0.0046-6.1492 0.06564-6.3415zm1.1444 5.6711c0.07508 0.018232 2.9486 0.025613 6.3855 0.016406l6.249-0.016743 0.03159-5.4654-0.35594-0.35773h-12.06l-0.15546 0.16768c-0.0855 0.092226-0.17036 0.20884-0.18857 0.25915-0.01821 0.050305-0.03527 1.2777-0.0379 2.7275l-0.0048 2.636zm-0.04769 6.5892c0.1722 0.4142-0.14158 0.39576 6.4294 0.37783l5.9112-0.01613 0.37196-0.35818v-5.465h-12.801v2.6239c0 2.1658 0.01551 2.6612 0.08882 2.8376z" stroke-width=".060823"/>
</svg>
