<?xml version="1.0" encoding="UTF-8"?>
<svg width="15mm" height="15mm" version="1.1" viewBox="0 0 15 15" xmlns="http://www.w3.org/2000/svg">
  <path d="m0.29201 14.908c-0.11318-0.049277-0.22518-0.14017-0.24889-0.20198-0.023716-0.061811-0.043119-1.5232-0.043119-3.2476 0-3.0634 0.003098-3.1385 0.13533-3.2805l0.13533-0.14528h6.4277l0.13533 0.14528c0.13224 0.14197 0.13533 0.21701 0.13533 3.2903 0 1.9245-0.025212 3.1921-0.064971 3.2664-0.13277 0.24813-0.39363 0.26823-3.446 0.26555-2.3343-2e-3 -3.0037-0.02154-3.166-0.09219zm5.732-3.4069 0.017381-2.5391h-5.1122v2.5115c0 1.3813 0.020266 2.5317 0.045035 2.5565 0.024769 0.02477 1.1672 0.03722 2.5387 0.02766l2.4937-0.01738zm2.372 3.4539c-0.073009-0.01779-0.18501-0.078698-0.24889-0.13535-0.10762-0.095448-0.11615-0.34073-0.11615-3.3417v-3.2387l0.14751-0.10334c0.12856-0.090059 0.55863-0.10334 3.347-0.10334h3.1994l0.13756 0.17491c0.13467 0.17123 0.13756 0.23953 0.13756 3.2496 0 2.1567-0.02255 3.1242-0.07552 3.2405-0.04154 0.09118-0.16546 0.19713-0.27539 0.23546-0.19977 0.06965-5.9741 0.08991-6.2531 0.02194zm5.659-3.4539 0.01738-2.5391h-5.1122v2.5115c0 1.3813 0.020268 2.5317 0.045036 2.5565 0.024756 0.02477 1.1672 0.03722 2.5387 0.02766l2.4937-0.01738zm-13.922-4.6634c-0.12906-0.12908-0.13274-0.22127-0.13274-3.3223v-3.1895l0.35124-0.32557h6.2665l0.17562 0.16279 0.17562 0.16279v3.1895c0 3.101-0.00366 3.1932-0.13274 3.3223-0.12909 0.12911-0.22124 0.13276-3.3518 0.13276-3.1305 0-3.2227-0.00366-3.3518-0.13276zm5.9071-3.3523v-2.5557h-5.1106v5.1114h5.1106zm2.1239 3.3523c-0.12909-0.12911-0.13274-0.22127-0.13274-3.3475v-3.2147l0.17488-0.13758c0.17121-0.13469 0.23949-0.13758 3.2491-0.13758 2.1117 0 3.1248 0.023077 3.2359 0.073702 0.08895 0.040536 0.19489 0.14649 0.23542 0.23546 0.050617 0.11111 0.073691 1.1245 0.073691 3.2365 0 3.0101-0.0029 3.0784-0.13756 3.2496l-0.13756 0.17491h-3.2142c-3.1257 0-3.2179-0.00366-3.347-0.13276zm5.8913-3.3357-0.017384-2.5391-5.0774-0.034769v5.113h5.1122z" stroke-width=".066377"/>
</svg>
